<svg id="Calque_2" data-name="Calque 2" xmlns="http://www.w3.org/2000/svg" viewBox="0 0 595.28 841.89"><defs><style>.cls-1{fill:#e2cb4a;}.cls-1,.cls-2{stroke:#171d25;stroke-miterlimit:10;}.cls-2{fill:#171d25;}</style></defs><title>Plan de travail 1</title><polygon class="cls-1" points="395.96 241.38 407.53 314.99 386.38 290.17 395.96 241.38"/><polygon class="cls-1" points="313.3 166.8 257.26 158.81 283.33 148.97 313.3 166.8"/><polygon class="cls-1" points="186.63 101.95 283.33 148.97 257.26 158.81 186.63 101.95"/><polygon class="cls-1" points="153 107.7 186.63 101.95 173.56 117.73 153 107.7"/><polygon class="cls-1" points="168.76 285.05 152.42 358.94 115.5 394.23 168.76 285.05"/><polygon class="cls-1" points="344.02 536.2 306.91 600.7 297 446.59 344.02 536.2"/><polygon class="cls-1" points="257.24 426.62 220.24 522.81 218.98 262.67 257.24 426.62"/><polygon class="cls-1" points="338.35 233.54 297 446.59 271.94 387.01 338.35 233.54"/><polygon class="cls-1" points="271.94 387.01 297 446.59 220.24 522.81 271.94 387.01"/><polygon class="cls-1" points="297 446.59 239.65 614.34 220.24 522.81 297 446.59"/><polygon class="cls-1" points="173.56 117.73 202.75 132.33 197.24 196.85 173.56 117.73"/><polygon class="cls-1" points="202.75 132.33 297.64 178.42 197.24 196.85 202.75 132.33"/><polygon class="cls-1" points="297.64 178.42 355.56 204.34 197.24 196.85 297.64 178.42"/><polygon class="cls-1" points="446.27 313.62 344.02 536.2 407.53 314.99 446.27 313.62"/><polygon class="cls-1" points="338.35 233.54 367.86 268.42 360.1 355.71 338.35 233.54"/><polygon class="cls-1" points="407.53 314.99 344.02 536.2 367.86 268.42 407.53 314.99"/><polygon class="cls-1" points="338.35 233.54 360.1 355.71 344.02 536.2 338.35 233.54"/><polygon class="cls-1" points="218.98 262.67 197.24 196.85 126.41 169.26 218.98 262.67"/><polygon class="cls-1" points="218.98 262.67 220.24 522.81 184.24 362.61 218.98 262.67"/><polygon class="cls-1" points="186.63 101.95 191.18 93.1 283.33 148.97 186.63 101.95"/><polygon class="cls-1" points="153 107.7 173.56 117.73 197.24 196.85 153 107.7"/><polygon class="cls-1" points="156.69 224.57 218.98 262.67 184.24 362.61 156.69 224.57"/><polygon class="cls-1" points="153 107.7 197.24 196.85 141.24 131.24 153 107.7"/><polygon class="cls-1" points="173.56 117.73 186.63 101.95 257.26 158.81 173.56 117.73"/><polygon class="cls-1" points="412.11 204.33 487.65 290.31 526.43 310.78 412.11 204.33"/><polygon class="cls-1" points="395.96 241.38 510.62 318.48 486.54 319.83 395.96 241.38"/><polygon class="cls-1" points="395.96 241.38 535.65 315.68 514.11 320.68 395.96 241.38"/><polygon class="cls-1" points="412.11 204.33 487.65 290.31 395.96 241.38 412.11 204.33"/><polygon class="cls-1" points="355.56 204.34 395.96 241.38 367.86 268.42 355.56 204.34"/><polygon class="cls-1" points="355.56 204.34 367.86 268.42 338.35 233.54 355.56 204.34"/><polygon class="cls-1" points="369.36 169.2 412.11 204.33 340.54 167.97 369.36 169.2"/><polygon class="cls-1" points="315.98 144.95 338.95 145.42 313.3 166.8 315.98 144.95"/><polygon class="cls-1" points="283.33 148.97 315.98 144.95 313.3 166.8 283.33 148.97"/><polygon class="cls-1" points="155.11 285.89 154.37 314.55 134.29 355.71 155.11 285.89"/><polygon class="cls-1" points="395.96 241.38 446.27 313.62 407.53 314.99 395.96 241.38"/><polygon class="cls-1" points="446.27 313.62 347.53 590.89 344.02 536.2 446.27 313.62"/><polygon class="cls-1" points="313.3 166.8 340.54 167.97 355.56 204.34 313.3 166.8"/><polygon class="cls-1" points="297.64 178.42 313.3 166.8 355.56 204.34 297.64 178.42"/><polygon class="cls-1" points="131.59 145.26 197.24 196.85 126.41 169.26 131.59 145.26"/><polygon class="cls-1" points="174.6 314.34 184.24 362.61 171.06 487.81 174.6 314.34"/><polygon class="cls-1" points="355.56 204.34 218.98 262.67 197.24 196.85 355.56 204.34"/><polygon class="cls-1" points="156.69 224.57 168.76 285.05 154.37 314.55 156.69 224.57"/><polygon class="cls-1" points="156.69 224.57 218.98 262.67 126.41 169.26 156.69 224.57"/><polygon class="cls-1" points="156.01 250.81 122.63 201.83 126.41 169.26 156.69 224.57 156.01 250.81"/><polygon class="cls-1" points="152.42 358.94 150.71 425.65 122.63 457.76 131.32 379.11 152.42 358.94"/><polygon class="cls-1" points="338.14 233.43 257.03 426.51 218.77 262.56 338.14 233.43"/><polygon class="cls-1" points="122.63 201.83 108.03 183.19 109.59 169.2 126.41 169.26 122.63 201.83"/><polygon class="cls-1" points="141.24 131.24 128.54 131.01 145.56 100.84 153 107.7 141.24 131.24"/><polygon class="cls-1" points="384.06 488.32 387.88 527.91 424.71 458.91 431.21 355.9 384.06 488.32"/><polygon class="cls-1" points="306.91 600.7 265.38 688.62 239.65 614.34 297 446.59 306.91 600.7"/><polygon class="cls-1" points="174.6 314.34 171.06 487.81 148.54 510.29 152.42 358.94 168.76 285.05 174.6 314.34"/><polygon class="cls-1" points="180.88 582.15 166.06 535.46 184.24 362.61 220.24 522.81 180.88 582.15"/><polygon class="cls-1" points="422.95 493.96 431.21 355.9 446.27 313.62 449.69 385.1 422.95 493.96"/><polygon class="cls-1" points="482.49 316.91 446.27 313.62 395.96 241.38 482.49 316.91"/><polygon class="cls-1" points="126.41 169.26 109.59 169.2 120.31 148.15 131.59 145.26 126.41 169.26"/><polygon class="cls-1" points="186.63 101.95 153 107.7 145.56 100.84 155.11 88.63 174.6 84.63 191.18 93.1 186.63 101.95"/><polygon class="cls-2" points="313.3 166.8 312.51 185.07 257.26 158.81 313.3 166.8"/><polygon class="cls-1" points="386.38 290.17 367.86 268.42 395.96 241.38 386.38 290.17"/><polygon class="cls-1" points="197.24 196.85 131.59 145.26 120.31 148.15 128.54 131.01 141.24 131.24 197.24 196.85"/><polygon class="cls-1" points="338.35 233.54 344.02 536.2 297 446.59 338.35 233.54"/><polygon class="cls-1" points="355.56 204.34 338.35 233.54 218.98 262.67 355.56 204.34"/><polygon class="cls-1" points="412.11 204.33 395.96 241.38 355.56 204.34 412.11 204.33"/><polygon class="cls-1" points="340.54 167.97 412.11 204.33 355.56 204.34 340.54 167.97"/><polygon class="cls-1" points="338.95 145.42 369.36 169.2 313.3 166.8 338.95 145.42"/></svg>